<svg xmlns="http://www.w3.org/2000/svg"  viewBox="0 0 64 64" width="64px" height="64px"><path fill="#edcf54" d="M63.013,32c0,17.125-13.888,31.013-31.013,31.013S0.988,49.125,0.988,32S14.875,0.988,32,0.988	S63.013,14.875,63.013,32"/><path fill="#ba0028" d="M41.595,31.066c-0.106-0.243-0.179-0.401-0.19-0.443v-0.011c-0.676-1.531-1.319-2.966-1.942-4.286	c-0.084-0.19-0.179-0.38-0.264-0.57c-0.106-0.232-0.211-0.454-0.317-0.676c-2.554-5.468-4.486-8.962-5.742-10.429	c-0.285-0.338-0.686-0.486-1.14-0.486c-0.454,0-0.855,0.148-1.14,0.486c-1.256,1.467-3.188,4.961-5.742,10.429	c-0.106,0.222-0.211,0.443-0.317,0.676c-0.084,0.19-0.179,0.38-0.264,0.57c-0.623,1.319-1.267,2.755-1.942,4.286v0.011	c-0.011,0.042-0.084,0.201-0.19,0.443c-0.575,1.299-2.231,5.078-2.981,6.764l1.325-0.525c1.637-0.672,3.302-1.3,4.951-1.886	l0.034-0.015c0.137-0.338,0.799-2.027,0.926-2.354c0.317-0.792,0.623-1.552,0.918-2.28c0.032-0.063,0.053-0.137,0.084-0.201	c0.317-0.781,0.623-1.531,0.918-2.238c0.063-0.158,0.137-0.306,0.201-0.464c0.106-0.243,0.201-0.475,0.296-0.707	c0.158-0.369,0.306-0.718,0.443-1.056c0.179-0.412,0.348-0.802,0.517-1.182c0.285-0.644,0.538-1.224,0.76-1.731	c0.084-0.201,0.179-0.391,0.253-0.57c0.264-0.581,0.475-1.045,0.644-1.404c0.151-0.338,0.253-0.558,0.306-0.67	c0.053,0.113,0.155,0.334,0.306,0.67c0.169,0.359,0.38,0.823,0.644,1.404c0.074,0.179,0.169,0.369,0.253,0.57	c0.222,0.507,0.475,1.087,0.76,1.731c0.169,0.38,0.338,0.771,0.517,1.182c0.137,0.338,0.285,0.686,0.443,1.056	c0.095,0.232,0.19,0.464,0.296,0.707c0.063,0.158,0.137,0.306,0.201,0.464c0.296,0.707,0.602,1.457,0.918,2.238	c0.032,0.063,0.053,0.137,0.084,0.201c0.296,0.728,0.602,1.488,0.918,2.28c0.127,0.327,0.789,2.016,0.926,2.354l0.034,0.015	c1.649,0.586,3.313,1.214,4.951,1.886l1.325,0.525C43.826,36.144,42.17,32.365,41.595,31.066z"/><path fill="#ba0028" d="M24.411,41.21C23.64,45.073,23.556,49,23.556,49l-3.167,2.111h-5.278l3.135-9.901H24.411z"/><path fill="#e04f5f" d="M23.587,41.21c-1.077,3.093-2.227,6.597-3.198,9.901h-5.278l3.135-9.901H23.587z"/><path fill="#ba0028" d="M48.889,51.111h-5.278L40.444,49c0,0-0.127-6.207-1.583-10.693c-0.011-0.042-0.032-0.084-0.042-0.127	h5.974L48.889,51.111z"/><path fill="#e04f5f" d="M48.889,51.111h-5.278c-1.33-4.539-2.818-8.93-4.286-12.899c0,0,0-0.011-0.011-0.032h5.478	L48.889,51.111z"/><path fill="#ba0028" d="M41.848,31.553l-0.359-0.813l-0.862,0.215c-4.264,1.062-12.372,3.267-19.878,6.349l-1.317,0.523	l-0.172,0.424c-0.706,1.667-1.368,3.253-1.975,4.717l1.257-0.302c0,0,6.597-1.847,25.201-4.222l1.02-0.139	C43.839,36.125,42.851,33.827,41.848,31.553z"/><path fill="#d92949" d="M48.889,51.111L51,50.056c0,0-1.066-5.616-3.346-13.627c-2.248-7.896-5.658-18.103-10.376-27.539	H26.722c-4.718,9.437-8.128,19.644-10.376,27.539C14.066,44.44,13,50.056,13,50.056l2.111,1.056c0,0,2.23-5.622,5.121-12.447	c7.829-3.314,16.641-5.685,20.651-6.685C45.032,41.384,48.889,51.111,48.889,51.111z M21.53,35.624	c3.626-8.42,7.865-17.636,10.09-20.243c0.098-0.115,0.244-0.158,0.38-0.158s0.282,0.043,0.38,0.157	c1.363,1.596,3.479,5.668,5.747,10.519L21.53,35.624z"/><path fill="#e04f5f" d="M34.111,8.889c0,0,7.843,11.611,13.511,27.444c0.011,0.032,0.021,0.063,0.032,0.095	c-2.248-7.896-5.658-18.103-10.376-27.539H34.111z"/><path fill="#ba0028" d="M29.889,8.889c0,0-7.843,11.611-13.511,27.444c-0.011,0.032-0.021,0.063-0.032,0.095	c2.248-7.896,5.658-18.103,10.376-27.539H29.889z"/></svg>